# xmcd
#
# Track frame offsets:
#	150
#	14247
#	27606
#	41352
#	56472
#	70439
#	85878
#	99417
#	114927
#	127497
#	143671
#	156808
#	169656
#	183320
#	196727
#	209418
#	220946
#	236812
#
# Disc length: 3352 seconds
#
# Revision: 0
# Processed by: cddbd v1.5.2PL0 Copyright (c) Steve Scherf et al.
# Submitted via: EasyCDDAExtractor 16.0.6.1
#
DISCID=080d1612
DTITLE=Συλλογικός δίσκος - Τα 45άρια 1.4
DYEAR=1999
DGENRE=Λαϊκή
TTITLE0=Αγγελόπουλος Μανώλης - Φεγγάρι χλωμό
TTITLE1=Μαράντη Μαίρη - Έχω κάψες
TTITLE2=Παπαδάκης Μάνος - Θα τα κάψω τα λεφτά μου
TTITLE3=Πάνου Πόλυ - Μελαχροινή τσιγγάνα μου
TTITLE4=Περπινιάδης Βαγγέλης - Γύρισε κοντά μου
TTITLE5=Γκρέϋ Καίτη - Ένα γράμμα στο κατώφλι
TTITLE6=Ρεπάνης Αντώνης - Σταυροδρόμι
TTITLE7=Λύδια Γιώτα - Γιατί θες να φύγεις
TTITLE8=Διονυσίου Στράτος - Κάντε πέρα να χορέψω
TTITLE9=Λίντα Μαίρη - Δεν θέλω πια να ξαναρθείς
TTITLE10=Χατζηαντωνίου Γιώργος - Γιατί δεν ήρθες τότε
TTITLE11=Αναγνωστάκης Πέτρος - Οι αναμνήσεις
TTITLE12=Μαρκάκης Μπάμπης - Πληγωμένοι κι οι δυό
TTITLE13=Λαμπράκη Χαρούλα - Ο γκρινιάρης
TTITLE14=Ζαγοραίος Σπύρος - Αν τον αγαπάς παιδί μου
TTITLE15=Λίντα Μαίρη - Θέλω να φύγω
TTITLE16=Διονυσίου Στράτος - Γράμμα θα στείλω στο Θεό
TTITLE17=Καζαντζίδης Στέλιος - Απόκληρος της κοινωνίας
EXTD=
EXTT0=
EXTT1=
EXTT2=
EXTT3=
EXTT4=
EXTT5=
EXTT6=
EXTT7=
EXTT8=
EXTT9=
EXTT10=
EXTT11=
EXTT12=
EXTT13=
EXTT14=
EXTT15=
EXTT16=
EXTT17=
PLAYORDER=
